<?xml version="1.0" standalone="no"?><!-- Generator: Gravit.io --><svg xmlns="http://www.w3.org/2000/svg" xmlns:xlink="http://www.w3.org/1999/xlink" style="isolation:isolate" viewBox="0 0 551 598" width="551" height="598"><defs><clipPath id="_clipPath_5g7MdkJ1wmmFYfCRqyiysYJbzOUz59FH"><rect width="551" height="598"/></clipPath></defs><g clip-path="url(#_clipPath_5g7MdkJ1wmmFYfCRqyiysYJbzOUz59FH)"><g id="Group"><rect x="30.941" y="124.438" width="25" height="153.562" transform="matrix(1,0,0,1,0,0)" fill="rgb(235,235,235)"/><rect x="0" y="161.505" width="25" height="116.495" transform="matrix(1,0,0,1,0,0)" fill="rgb(235,235,235)"/><rect x="123.765" y="103.257" width="25" height="174.743" transform="matrix(1,0,0,1,0,0)" fill="rgb(235,235,235)"/><rect x="216.588" y="0" width="25" height="278" transform="matrix(1,0,0,1,0,0)" fill="rgb(235,235,235)"/><rect x="309.412" y="45.01" width="25" height="232.99" transform="matrix(1,0,0,1,0,0)" fill="rgb(235,235,235)"/><rect x="402.235" y="25.152" width="25" height="252.848" transform="matrix(1,0,0,1,0,0)" fill="rgb(235,235,235)"/><rect x="61.882" y="71.486" width="25" height="206.514" transform="matrix(1,0,0,1,0,0)" fill="rgb(235,235,235)"/><rect x="154.706" y="58.248" width="25" height="219.752" transform="matrix(1,0,0,1,0,0)" fill="rgb(235,235,235)"/><rect x="247.529" y="34.419" width="25" height="243.581" transform="matrix(1,0,0,1,0,0)" fill="rgb(235,235,235)"/><rect x="340.353" y="34.419" width="25" height="243.581" transform="matrix(1,0,0,1,0,0)" fill="rgb(235,235,235)"/><rect x="433.176" y="58.248" width="25" height="219.752" transform="matrix(1,0,0,1,0,0)" fill="rgb(235,235,235)"/><rect x="92.824" y="95.314" width="25" height="182.686" transform="matrix(1,0,0,1,0,0)" fill="rgb(235,235,235)"/><rect x="185.647" y="25.152" width="25" height="252.848" transform="matrix(1,0,0,1,0,0)" fill="rgb(235,235,235)"/><rect x="278.471" y="71.486" width="25" height="206.514" transform="matrix(1,0,0,1,0,0)" fill="rgb(235,235,235)"/><rect x="371.294" y="0" width="25" height="278" transform="matrix(1,0,0,1,0,0)" fill="rgb(235,235,235)"/><rect x="464.118" y="95.314" width="25" height="182.686" transform="matrix(1,0,0,1,0,0)" fill="rgb(235,235,235)"/><rect x="495.059" y="139" width="25" height="139" transform="matrix(1,0,0,1,0,0)" fill="rgb(235,235,235)"/><rect x="526" y="161.505" width="25" height="116.495" transform="matrix(1,0,0,1,0,0)" fill="rgb(235,235,235)"/></g><g id="Group"><rect x="30.941" y="278" width="25" height="176.762" transform="matrix(-1,0,0,-1,86.882,732.762)" fill="rgb(235,235,235)"/><rect x="0" y="278" width="25" height="134.095" transform="matrix(-1,0,0,-1,25,690.095)" fill="rgb(235,235,235)"/><rect x="123.765" y="278" width="25" height="201.143" transform="matrix(-1,0,0,-1,272.529,757.143)" fill="rgb(235,235,235)"/><rect x="216.588" y="278" width="25" height="320" transform="matrix(-1,0,0,-1,458.176,876)" fill="rgb(235,235,235)"/><rect x="309.412" y="278" width="25" height="268.19" transform="matrix(-1,0,0,-1,643.824,824.19)" fill="rgb(235,235,235)"/><rect x="402.235" y="278" width="25" height="291.048" transform="matrix(-1,0,0,-1,829.471,847.048)" fill="rgb(235,235,235)"/><rect x="61.882" y="278" width="25" height="237.714" transform="matrix(-1,0,0,-1,148.765,793.714)" fill="rgb(235,235,235)"/><rect x="154.706" y="278" width="25" height="252.952" transform="matrix(-1,0,0,-1,334.412,808.952)" fill="rgb(235,235,235)"/><rect x="247.529" y="278" width="25" height="280.381" transform="matrix(-1,0,0,-1,520.059,836.381)" fill="rgb(235,235,235)"/><rect x="340.353" y="278" width="25" height="280.381" transform="matrix(-1,0,0,-1,705.706,836.381)" fill="rgb(235,235,235)"/><rect x="433.176" y="278" width="25" height="252.952" transform="matrix(-1,0,0,-1,891.353,808.952)" fill="rgb(235,235,235)"/><rect x="92.824" y="278" width="25" height="210.286" transform="matrix(-1,0,0,-1,210.647,766.286)" fill="rgb(235,235,235)"/><rect x="185.647" y="278" width="25" height="291.048" transform="matrix(-1,0,0,-1,396.294,847.048)" fill="rgb(235,235,235)"/><rect x="278.471" y="278" width="25" height="237.714" transform="matrix(-1,0,0,-1,581.941,793.714)" fill="rgb(235,235,235)"/><rect x="371.294" y="278" width="25" height="320" transform="matrix(-1,0,0,-1,767.588,876)" fill="rgb(235,235,235)"/><rect x="464.118" y="278" width="25" height="210.286" transform="matrix(-1,0,0,-1,953.235,766.286)" fill="rgb(235,235,235)"/><rect x="495.059" y="278" width="25" height="160" transform="matrix(-1,0,0,-1,1015.118,716)" fill="rgb(235,235,235)"/><rect x="526" y="278" width="25" height="134.095" transform="matrix(-1,0,0,-1,1077,690.095)" fill="rgb(235,235,235)"/></g></g></svg>