<?xml version="1.0" standalone="no"?><!-- Generator: Gravit.io --><svg xmlns="http://www.w3.org/2000/svg" xmlns:xlink="http://www.w3.org/1999/xlink" style="isolation:isolate" viewBox="0 0 191.902 178.798" width="191.902" height="178.798"><defs><clipPath id="_clipPath_YeXQDKMJvYKsHKGPd3xcnWR2wJRGVDNF"><rect width="191.902" height="178.798"/></clipPath></defs><g clip-path="url(#_clipPath_YeXQDKMJvYKsHKGPd3xcnWR2wJRGVDNF)"><g id="Group"><defs><filter id="4VJFtSAq8yyVWY5LHxkqJiUyHK6AUbF9" x="-200%" y="-200%" width="400%" height="400%"><feOffset xmlns="http://www.w3.org/2000/svg" in="SourceAlpha" result="offOut" dx="0" dy="0"/><feGaussianBlur xmlns="http://www.w3.org/2000/svg" in="offOut" result="blurOut" stdDeviation="1"/><feComponentTransfer xmlns="http://www.w3.org/2000/svg" in="blurOut" result="opacOut"><feFuncA xmlns="http://www.w3.org/2000/svg" type="table" tableValues="0 0.5"/></feComponentTransfer><feBlend xmlns="http://www.w3.org/2000/svg" in="SourceGraphic" in2="opacOut" mode="normal"/></filter></defs><g filter="url(#4VJFtSAq8yyVWY5LHxkqJiUyHK6AUbF9)"><path d="M 106.739 51.144 L 178.064 51.144 C 180.458 51.144 182.402 53.088 182.402 55.482 L 182.402 80.172 C 182.402 82.566 180.458 84.509 178.064 84.509 L 106.739 84.509 C 104.345 84.509 102.402 82.566 102.402 80.172 L 102.402 55.482 C 102.402 53.088 104.345 51.144 106.739 51.144 Z" style="stroke:none;fill:#FFFFFF;stroke-miterlimit:10;"/><path d="M 106.739 51.144 L 178.064 51.144 C 180.458 51.144 182.402 53.088 182.402 55.482 L 182.402 80.172 C 182.402 82.566 180.458 84.509 178.064 84.509 L 106.739 84.509 C 104.345 84.509 102.402 82.566 102.402 80.172 L 102.402 55.482 C 102.402 53.088 104.345 51.144 106.739 51.144 Z" style="fill:none;stroke:#717171;stroke-width:4;stroke-linecap:square;stroke-miterlimit:3;"/></g><path d=" M 113.402 79.144 L 123.402 58.144 L 133.402 79.144 L 144.402 58.144 L 152.402 79.144 L 161.402 58.144 L 171.402 79.144" fill="none" vector-effect="non-scaling-stroke" stroke-width="2" stroke="rgb(0,0,0)" stroke-linejoin="miter" stroke-linecap="square" stroke-miterlimit="3"/></g><g id="Group"><defs><filter id="C1AiIrxmA3Zan6v2rqKz0uKrWLMAWZd1" x="-200%" y="-200%" width="400%" height="400%"><feOffset xmlns="http://www.w3.org/2000/svg" in="SourceAlpha" result="offOut" dx="0" dy="0"/><feGaussianBlur xmlns="http://www.w3.org/2000/svg" in="offOut" result="blurOut" stdDeviation="1"/><feComponentTransfer xmlns="http://www.w3.org/2000/svg" in="blurOut" result="opacOut"><feFuncA xmlns="http://www.w3.org/2000/svg" type="table" tableValues="0 0.5"/></feComponentTransfer><feBlend xmlns="http://www.w3.org/2000/svg" in="SourceGraphic" in2="opacOut" mode="normal"/></filter></defs><g filter="url(#C1AiIrxmA3Zan6v2rqKz0uKrWLMAWZd1)"><path d="M 106.739 8 L 178.064 8 C 180.458 8 182.402 9.944 182.402 12.337 L 182.402 37.028 C 182.402 39.422 180.458 41.365 178.064 41.365 L 106.739 41.365 C 104.345 41.365 102.402 39.422 102.402 37.028 L 102.402 12.337 C 102.402 9.944 104.345 8 106.739 8 Z" style="stroke:none;fill:#FFFFFF;stroke-linecap:square;stroke-miterlimit:3;"/><path d="M 106.739 8 L 178.064 8 C 180.458 8 182.402 9.944 182.402 12.337 L 182.402 37.028 C 182.402 39.422 180.458 41.365 178.064 41.365 L 106.739 41.365 C 104.345 41.365 102.402 39.422 102.402 37.028 L 102.402 12.337 C 102.402 9.944 104.345 8 106.739 8 Z" style="fill:none;stroke:#717171;stroke-width:4;stroke-linecap:square;stroke-miterlimit:3;"/></g><path d=" M 113.402 35.183 L 123.402 14.183 L 133.402 35.183 L 144.402 14.183 L 152.402 35.183 L 161.402 14.183 L 171.402 35.183" fill="none" vector-effect="non-scaling-stroke" stroke-width="2" stroke="rgb(108,103,103)" stroke-linejoin="miter" stroke-linecap="square" stroke-miterlimit="3"/></g><g id="Group"><defs><filter id="qTz0Lb4g5Ihe6rWiwRQsv5gMh5badF4s" x="-200%" y="-200%" width="400%" height="400%"><feOffset xmlns="http://www.w3.org/2000/svg" in="SourceAlpha" result="offOut" dx="0" dy="0"/><feGaussianBlur xmlns="http://www.w3.org/2000/svg" in="offOut" result="blurOut" stdDeviation="1"/><feComponentTransfer xmlns="http://www.w3.org/2000/svg" in="blurOut" result="opacOut"><feFuncA xmlns="http://www.w3.org/2000/svg" type="table" tableValues="0 0.5"/></feComponentTransfer><feBlend xmlns="http://www.w3.org/2000/svg" in="SourceGraphic" in2="opacOut" mode="normal"/></filter></defs><g filter="url(#qTz0Lb4g5Ihe6rWiwRQsv5gMh5badF4s)"><path d="M 14.739 51.266 L 86.064 51.266 C 88.458 51.266 90.402 53.209 90.402 55.603 L 90.402 80.294 C 90.402 82.688 88.458 84.631 86.064 84.631 L 14.739 84.631 C 12.345 84.631 10.402 82.688 10.402 80.294 L 10.402 55.603 C 10.402 53.209 12.345 51.266 14.739 51.266 Z" style="stroke:none;fill:#FFFFFF;stroke-linecap:square;stroke-miterlimit:3;"/><path d="M 14.739 51.266 L 86.064 51.266 C 88.458 51.266 90.402 53.209 90.402 55.603 L 90.402 80.294 C 90.402 82.688 88.458 84.631 86.064 84.631 L 14.739 84.631 C 12.345 84.631 10.402 82.688 10.402 80.294 L 10.402 55.603 C 10.402 53.209 12.345 51.266 14.739 51.266 Z" style="fill:none;stroke:#6C6767;stroke-width:4;stroke-linecap:square;stroke-miterlimit:3;"/></g><path d=" M 21.402 78.631 L 35.451 78.631 L 35.451 59.266 L 51.507 59.266 L 51.507 78.631 L 63.549 78.631 L 63.549 59.266 L 77.598 59.266 L 77.598 78.631" fill="none" vector-effect="non-scaling-stroke" stroke-width="2" stroke="rgb(0,0,0)" stroke-linejoin="miter" stroke-linecap="square" stroke-miterlimit="3"/></g><g id="Group"><defs><filter id="7Dm29kYwktOCWyPZoLqdTFhiNmAkzr8J" x="-200%" y="-200%" width="400%" height="400%"><feOffset xmlns="http://www.w3.org/2000/svg" in="SourceAlpha" result="offOut" dx="0" dy="0"/><feGaussianBlur xmlns="http://www.w3.org/2000/svg" in="offOut" result="blurOut" stdDeviation="1"/><feComponentTransfer xmlns="http://www.w3.org/2000/svg" in="blurOut" result="opacOut"><feFuncA xmlns="http://www.w3.org/2000/svg" type="table" tableValues="0 0.5"/></feComponentTransfer><feBlend xmlns="http://www.w3.org/2000/svg" in="SourceGraphic" in2="opacOut" mode="normal"/></filter></defs><g filter="url(#7Dm29kYwktOCWyPZoLqdTFhiNmAkzr8J)"><path d="M 14.739 8.183 L 86.064 8.183 C 88.458 8.183 90.402 10.126 90.402 12.52 L 90.402 37.21 C 90.402 39.604 88.458 41.548 86.064 41.548 L 14.739 41.548 C 12.345 41.548 10.402 39.604 10.402 37.21 L 10.402 12.52 C 10.402 10.126 12.345 8.183 14.739 8.183 Z" style="stroke:none;fill:#FFFFFF;stroke-linecap:square;stroke-miterlimit:3;"/><path d="M 14.739 8.183 L 86.064 8.183 C 88.458 8.183 90.402 10.126 90.402 12.52 L 90.402 37.21 C 90.402 39.604 88.458 41.548 86.064 41.548 L 14.739 41.548 C 12.345 41.548 10.402 39.604 10.402 37.21 L 10.402 12.52 C 10.402 10.126 12.345 8.183 14.739 8.183 Z" style="fill:none;stroke:#6C6767;stroke-width:4;stroke-linecap:square;stroke-miterlimit:3;"/></g><path d=" M 21.402 34.548 L 35.451 34.548 L 35.451 15.183 L 51.507 15.183 L 51.507 34.548 L 63.549 34.548 L 63.549 15.183 L 77.598 15.183 L 77.598 34.548" fill="none" vector-effect="non-scaling-stroke" stroke-width="2" stroke="rgb(108,103,103)" stroke-linejoin="miter" stroke-linecap="square" stroke-miterlimit="3"/></g><g id="Group"><defs><filter id="9ZpPZrLu1mUAuHcm6IdK26aS0zbNn63R" x="-200%" y="-200%" width="400%" height="400%"><feOffset xmlns="http://www.w3.org/2000/svg" in="SourceAlpha" result="offOut" dx="0" dy="0"/><feGaussianBlur xmlns="http://www.w3.org/2000/svg" in="offOut" result="blurOut" stdDeviation="1"/><feComponentTransfer xmlns="http://www.w3.org/2000/svg" in="blurOut" result="opacOut"><feFuncA xmlns="http://www.w3.org/2000/svg" type="table" tableValues="0 0.5"/></feComponentTransfer><feBlend xmlns="http://www.w3.org/2000/svg" in="SourceGraphic" in2="opacOut" mode="normal"/></filter></defs><g filter="url(#9ZpPZrLu1mUAuHcm6IdK26aS0zbNn63R)"><path d="M 13.837 94.349 L 85.163 94.349 C 87.556 94.349 89.5 96.293 89.5 98.687 L 89.5 123.377 C 89.5 125.771 87.556 127.714 85.163 127.714 L 13.837 127.714 C 11.444 127.714 9.5 125.771 9.5 123.377 L 9.5 98.687 C 9.5 96.293 11.444 94.349 13.837 94.349 Z" style="stroke:none;fill:#FFFFFF;stroke-linecap:square;stroke-miterlimit:3;"/><path d="M 13.837 94.349 L 85.163 94.349 C 87.556 94.349 89.5 96.293 89.5 98.687 L 89.5 123.377 C 89.5 125.771 87.556 127.714 85.163 127.714 L 13.837 127.714 C 11.444 127.714 9.5 125.771 9.5 123.377 L 9.5 98.687 C 9.5 96.293 11.444 94.349 13.837 94.349 Z" style="fill:none;stroke:#717171;stroke-width:4;stroke-linecap:square;stroke-miterlimit:3;"/></g><path d=" M 19.098 112.722 Q 27.51 93.073 34.01 112.722 C 40.51 132.371 45.48 113.149 50.069 105.033 C 54.657 96.917 56.569 113.576 60.392 117.848 C 64.216 122.119 68.039 97.344 71.863 101.189 Q 75.686 105.033 77.598 117.848" fill="none" vector-effect="non-scaling-stroke" stroke-width="2" stroke="rgb(108,103,103)" stroke-linejoin="miter" stroke-linecap="square" stroke-miterlimit="3"/></g><g id="Group"><defs><filter id="kvJsRYjmmi3oqFYu7GUB7XaR2k6mSrra" x="-200%" y="-200%" width="400%" height="400%"><feOffset xmlns="http://www.w3.org/2000/svg" in="SourceAlpha" result="offOut" dx="0" dy="0"/><feGaussianBlur xmlns="http://www.w3.org/2000/svg" in="offOut" result="blurOut" stdDeviation="1"/><feComponentTransfer xmlns="http://www.w3.org/2000/svg" in="blurOut" result="opacOut"><feFuncA xmlns="http://www.w3.org/2000/svg" type="table" tableValues="0 0.5"/></feComponentTransfer><feBlend xmlns="http://www.w3.org/2000/svg" in="SourceGraphic" in2="opacOut" mode="normal"/></filter></defs><g filter="url(#kvJsRYjmmi3oqFYu7GUB7XaR2k6mSrra)"><path d="M 13.837 137.433 L 85.163 137.433 C 87.556 137.433 89.5 139.376 89.5 141.77 L 89.5 166.46 C 89.5 168.854 87.556 170.798 85.163 170.798 L 13.837 170.798 C 11.444 170.798 9.5 168.854 9.5 166.46 L 9.5 141.77 C 9.5 139.376 11.444 137.433 13.837 137.433 Z" style="stroke:none;fill:#FFFFFF;stroke-linecap:square;stroke-miterlimit:3;"/><path d="M 13.837 137.433 L 85.163 137.433 C 87.556 137.433 89.5 139.376 89.5 141.77 L 89.5 166.46 C 89.5 168.854 87.556 170.798 85.163 170.798 L 13.837 170.798 C 11.444 170.798 9.5 168.854 9.5 166.46 L 9.5 141.77 C 9.5 139.376 11.444 137.433 13.837 137.433 Z" style="fill:none;stroke:#717171;stroke-width:4;stroke-linecap:square;stroke-miterlimit:3;"/></g><path d=" M 19.098 155.805 Q 27.51 136.156 34.01 155.805 C 40.51 175.454 45.48 156.232 50.069 148.116 C 54.657 140 56.569 156.659 60.392 160.931 C 64.216 165.203 68.039 140.428 71.863 144.272 Q 75.686 148.116 77.598 160.931" fill="none" vector-effect="non-scaling-stroke" stroke-width="2" stroke="rgb(0,0,0)" stroke-linejoin="miter" stroke-linecap="square" stroke-miterlimit="3"/></g><g id="Group"><defs><filter id="8nXSvx8kwoLNsoIrUh5F7MBIKQuex7l1" x="-200%" y="-200%" width="400%" height="400%"><feOffset xmlns="http://www.w3.org/2000/svg" in="SourceAlpha" result="offOut" dx="0" dy="0"/><feGaussianBlur xmlns="http://www.w3.org/2000/svg" in="offOut" result="blurOut" stdDeviation="2.5"/><feComponentTransfer xmlns="http://www.w3.org/2000/svg" in="blurOut" result="opacOut"><feFuncA xmlns="http://www.w3.org/2000/svg" type="table" tableValues="0 0.5"/></feComponentTransfer><feBlend xmlns="http://www.w3.org/2000/svg" in="SourceGraphic" in2="opacOut" mode="normal"/></filter></defs><g filter="url(#8nXSvx8kwoLNsoIrUh5F7MBIKQuex7l1)"><path d="M 106.739 94.288 L 178.064 94.288 C 180.458 94.288 182.402 96.232 182.402 98.626 L 182.402 123.316 C 182.402 125.71 180.458 127.654 178.064 127.654 L 106.739 127.654 C 104.345 127.654 102.402 125.71 102.402 123.316 L 102.402 98.626 C 102.402 96.232 104.345 94.288 106.739 94.288 Z" style="stroke:none;fill:#FFFFFF;stroke-linecap:square;stroke-miterlimit:3;"/><path d="M 106.739 94.288 L 178.064 94.288 C 180.458 94.288 182.402 96.232 182.402 98.626 L 182.402 123.316 C 182.402 125.71 180.458 127.654 178.064 127.654 L 106.739 127.654 C 104.345 127.654 102.402 125.71 102.402 123.316 L 102.402 98.626 C 102.402 96.232 104.345 94.288 106.739 94.288 Z" style="fill:none;stroke:#717171;stroke-width:4;stroke-linecap:square;stroke-miterlimit:3;"/></g><path d=" M 109.402 121.221 L 115.402 110.221 L 118.402 115.221 L 121.402 106.221 L 123.402 112.221 L 127.402 102.221 L 132.402 121.221 L 137.402 112.221 L 140.402 117.221 L 143.402 106.221 L 145.402 112.221 L 150.402 102.221 L 153.402 119.221 L 157.402 106.221 L 159.402 112.221 L 162.402 102.221 L 167.402 110.221 L 171.402 98.221 L 171.402 119.221" fill="none" vector-effect="non-scaling-stroke" stroke-width="2" stroke="rgb(108,103,103)" stroke-linejoin="miter" stroke-linecap="square" stroke-miterlimit="3"/></g><g id="Group"><defs><filter id="zZUYFv6El3GzQuy4QIjCmxrcvtYDl0jj" x="-200%" y="-200%" width="400%" height="400%"><feOffset xmlns="http://www.w3.org/2000/svg" in="SourceAlpha" result="offOut" dx="0" dy="0"/><feGaussianBlur xmlns="http://www.w3.org/2000/svg" in="offOut" result="blurOut" stdDeviation="1"/><feComponentTransfer xmlns="http://www.w3.org/2000/svg" in="blurOut" result="opacOut"><feFuncA xmlns="http://www.w3.org/2000/svg" type="table" tableValues="0 0.5"/></feComponentTransfer><feBlend xmlns="http://www.w3.org/2000/svg" in="SourceGraphic" in2="opacOut" mode="normal"/></filter></defs><g filter="url(#zZUYFv6El3GzQuy4QIjCmxrcvtYDl0jj)"><path d="M 106.739 137.433 L 178.064 137.433 C 180.458 137.433 182.402 139.376 182.402 141.77 L 182.402 166.46 C 182.402 168.854 180.458 170.798 178.064 170.798 L 106.739 170.798 C 104.345 170.798 102.402 168.854 102.402 166.46 L 102.402 141.77 C 102.402 139.376 104.345 137.433 106.739 137.433 Z" style="stroke:none;fill:#FFFFFF;stroke-linecap:square;stroke-miterlimit:3;"/><path d="M 106.739 137.433 L 178.064 137.433 C 180.458 137.433 182.402 139.376 182.402 141.77 L 182.402 166.46 C 182.402 168.854 180.458 170.798 178.064 170.798 L 106.739 170.798 C 104.345 170.798 102.402 168.854 102.402 166.46 L 102.402 141.77 C 102.402 139.376 104.345 137.433 106.739 137.433 Z" style="fill:none;stroke:#717171;stroke-width:4;stroke-linecap:square;stroke-miterlimit:3;"/></g><path d=" M 109.402 164.365 L 115.402 153.365 L 118.402 158.365 L 121.402 149.365 L 123.402 155.365 L 127.402 145.365 L 132.402 164.365 L 137.402 155.365 L 140.402 160.365 L 143.402 149.365 L 145.402 155.365 L 150.402 145.365 L 153.402 162.365 L 157.402 149.365 L 159.402 155.365 L 162.402 145.365 L 167.402 153.365 L 171.402 141.365 L 171.402 162.365" fill="none" vector-effect="non-scaling-stroke" stroke-width="2" stroke="rgb(0,0,0)" stroke-linejoin="miter" stroke-linecap="square" stroke-miterlimit="3"/></g></g></svg>